# xmcd
#
# Track frame offsets: 
#        150
#        25305
#        50905
#        59892
#        85048
#        110648
#
# Disc length: 1591 seconds
#
# Revision: 0
# Processed by: cddbd v1.5.2PL0 Copyright (c) Steve Scherf et al.
# Submitted via: ExactAudioCopy v1.0b3
#
DISCID=55063506
DTITLE=Uru - Freesia
DYEAR=2017
DGENRE=Pop
TTITLE0=Freesia
TTITLE1=娘より
TTITLE2=フリージア[TV size]
TTITLE3=フリージア -instrumental-
TTITLE4=娘より -instrumental-
TTITLE5=フリージア[TV size] -instrumental-
EXTD=
EXTT0=
EXTT1=
EXTT2=
EXTT3=
EXTT4=
EXTT5=
PLAYORDER=
